<svg width="96" height="96" viewBox="0 0 96 96" fill="none" xmlns="http://www.w3.org/2000/svg">
<rect width="96" height="96" rx="48" fill="#1E5496"/>
<path d="M50.672 34.6906C59.12 34.6906 63.9147 40.2826 64.6107 47.0373H64.824C66.1154 47.0355 67.3945 47.2882 68.5882 47.7809C69.7819 48.2735 70.8669 48.9965 71.7812 49.9085C72.6954 50.8206 73.421 51.9038 73.9166 53.0963C74.4122 54.2888 74.668 55.5672 74.6694 56.8586C74.6676 58.1498 74.4116 59.428 73.9158 60.6202C73.4201 61.8124 72.6944 62.8952 71.7802 63.807C70.866 64.7187 69.7811 65.4415 68.5876 65.934C67.394 66.4265 66.1152 66.679 64.824 66.6773H36.5174C35.2262 66.679 33.9473 66.4265 32.7538 65.934C31.5603 65.4415 30.4754 64.7187 29.5612 63.807C28.647 62.8952 27.9213 61.8124 27.4255 60.6202C26.9298 59.428 26.6738 58.1498 26.672 56.8586C26.6734 55.5672 26.9292 54.2888 27.4248 53.0963C27.9203 51.9038 28.646 50.8206 29.5602 49.9085C30.4745 48.9965 31.5595 48.2735 32.7532 47.7809C33.9469 47.2882 35.226 47.0355 36.5174 47.0373H36.7307C37.432 40.2373 42.224 34.6906 50.672 34.6906ZM50.672 38.6826C45.1467 38.6826 40.3334 43.04 40.3334 49.056C40.3334 50.008 39.4827 50.7573 38.5094 50.7573H36.6694C33.304 50.7573 30.5787 53.424 30.5787 56.72C30.5787 60.0133 33.304 62.6826 36.6667 62.6826H64.6747C68.0374 62.6826 70.7627 60.016 70.7627 56.72C70.7627 53.4266 68.0374 50.7573 64.6747 50.7573H62.8347C61.8587 50.7573 61.008 50.0106 61.008 49.056C61.008 42.9626 56.1947 38.6826 50.672 38.6826ZM42.6667 26.6666C46.9787 26.6666 50.8 28.84 53.0667 32.1653C52.272 32.0703 51.4724 32.0231 50.672 32.024C49.6187 32.024 48.6054 32.1013 47.6347 32.2506C46.4545 31.4141 45.0821 30.8894 43.6448 30.725C42.2076 30.5607 40.7521 30.7622 39.4136 31.3107C38.075 31.8592 36.8967 32.737 35.9881 33.8626C35.0794 34.9882 34.4699 36.3251 34.216 37.7493L34.0214 38.8533C33.9128 39.4711 33.59 40.0309 33.1096 40.4342C32.6292 40.8376 32.022 41.0587 31.3947 41.0586H30.088C29.1484 41.0576 28.2296 41.3352 27.4477 41.8563C26.6658 42.3774 26.0559 43.1186 25.6952 43.9862C25.3345 44.8538 25.239 45.8089 25.421 46.7307C25.6029 47.6526 26.054 48.4998 26.7174 49.1653C25.8774 50.232 25.2107 51.4453 24.7574 52.7573C23.3397 51.67 22.2887 50.1748 21.7457 48.4727C21.2027 46.7706 21.1936 44.943 21.7197 43.2356C22.2458 41.5282 23.2818 40.0227 24.6886 38.9213C26.0954 37.82 27.8056 37.1755 29.5894 37.0746L30.2747 37.0586C30.7903 34.1467 32.3148 31.5092 34.5808 29.609C36.8467 27.7088 39.7094 26.6671 42.6667 26.6666Z" fill="white"/>
</svg>
