<svg width="48" height="48" viewBox="0 0 48 48" fill="none" xmlns="http://www.w3.org/2000/svg">
<path d="M24 30C22.8133 30 21.6533 29.6481 20.6666 28.9888C19.6799 28.3295 18.9109 27.3925 18.4567 26.2961C18.0026 25.1997 17.8838 23.9933 18.1153 22.8295C18.3468 21.6656 18.9182 20.5965 19.7574 19.7574C20.5965 18.9182 21.6656 18.3468 22.8295 18.1153C23.9933 17.8838 25.1997 18.0026 26.2961 18.4567C27.3925 18.9109 28.3295 19.6799 28.9888 20.6666C29.6481 21.6533 30 22.8133 30 24C29.998 25.5907 29.3652 27.1157 28.2404 28.2404C27.1157 29.3652 25.5907 29.998 24 30ZM24 21C23.4067 21 22.8266 21.1759 22.3333 21.5056C21.8399 21.8352 21.4554 22.3038 21.2284 22.852C21.0013 23.4001 20.9419 24.0033 21.0576 24.5853C21.1734 25.1672 21.4591 25.7018 21.8787 26.1213C22.2982 26.5409 22.8328 26.8266 23.4147 26.9424C23.9967 27.0581 24.5999 26.9987 25.1481 26.7716C25.6962 26.5446 26.1648 26.1601 26.4944 25.6667C26.8241 25.1734 27 24.5933 27 24C26.9992 23.2046 26.6829 22.442 26.1204 21.8796C25.558 21.3171 24.7954 21.0008 24 21Z" fill="#4F4F4F"/>
<path d="M7.5 30C6.31331 30 5.15328 29.6481 4.16658 28.9888C3.17989 28.3295 2.41085 27.3925 1.95673 26.2961C1.5026 25.1997 1.38378 23.9933 1.61529 22.8295C1.8468 21.6656 2.41825 20.5965 3.25736 19.7574C4.09648 18.9182 5.16558 18.3468 6.32946 18.1153C7.49335 17.8838 8.69975 18.0026 9.7961 18.4567C10.8925 18.9109 11.8295 19.6799 12.4888 20.6666C13.1481 21.6533 13.5 22.8133 13.5 24C13.498 25.5907 12.8652 27.1157 11.7405 28.2404C10.6157 29.3652 9.09069 29.998 7.5 30ZM7.5 21C6.90666 21 6.32664 21.1759 5.83329 21.5056C5.33994 21.8352 4.95543 22.3038 4.72836 22.852C4.5013 23.4001 4.44189 24.0033 4.55765 24.5853C4.6734 25.1672 4.95912 25.7018 5.37868 26.1213C5.79824 26.5409 6.33279 26.8266 6.91473 26.9424C7.49668 27.0581 8.09987 26.9987 8.64805 26.7716C9.19623 26.5446 9.66477 26.1601 9.99441 25.6667C10.3241 25.1734 10.5 24.5933 10.5 24C10.4992 23.2046 10.1829 22.442 9.62045 21.8796C9.05801 21.3171 8.29541 21.0008 7.5 21Z" fill="#4F4F4F"/>
<path d="M15 46.5C13.8133 46.5 12.6533 46.1481 11.6666 45.4888C10.6799 44.8295 9.91085 43.8925 9.45673 42.7961C9.0026 41.6997 8.88378 40.4934 9.11529 39.3295C9.3468 38.1656 9.91825 37.0965 10.7574 36.2574C11.5965 35.4182 12.6656 34.8468 13.8295 34.6153C14.9933 34.3838 16.1997 34.5026 17.2961 34.9567C18.3925 35.4109 19.3295 36.1799 19.9888 37.1666C20.6481 38.1533 21 39.3133 21 40.5C20.998 42.0907 20.3652 43.6157 19.2405 44.7405C18.1157 45.8652 16.5907 46.498 15 46.5ZM15 37.5C14.4067 37.5 13.8266 37.676 13.3333 38.0056C12.8399 38.3352 12.4554 38.8038 12.2284 39.352C12.0013 39.9001 11.9419 40.5033 12.0576 41.0853C12.1734 41.6672 12.4591 42.2018 12.8787 42.6213C13.2982 43.0409 13.8328 43.3266 14.4147 43.4424C14.9967 43.5581 15.5999 43.4987 16.1481 43.2716C16.6962 43.0446 17.1648 42.6601 17.4944 42.1667C17.8241 41.6734 18 41.0933 18 40.5C17.9992 39.7046 17.6829 38.942 17.1204 38.3796C16.558 37.8171 15.7954 37.5008 15 37.5Z" fill="#4F4F4F"/>
<path d="M33 46.5C31.8133 46.5 30.6533 46.1481 29.6666 45.4888C28.6799 44.8295 27.9109 43.8925 27.4567 42.7961C27.0026 41.6997 26.8838 40.4934 27.1153 39.3295C27.3468 38.1656 27.9182 37.0965 28.7574 36.2574C29.5965 35.4182 30.6656 34.8468 31.8295 34.6153C32.9933 34.3838 34.1997 34.5026 35.2961 34.9567C36.3925 35.4109 37.3295 36.1799 37.9888 37.1666C38.6481 38.1533 39 39.3133 39 40.5C38.998 42.0907 38.3652 43.6157 37.2404 44.7405C36.1157 45.8652 34.5907 46.498 33 46.5ZM33 37.5C32.4067 37.5 31.8266 37.676 31.3333 38.0056C30.8399 38.3352 30.4554 38.8038 30.2284 39.352C30.0013 39.9001 29.9419 40.5033 30.0576 41.0853C30.1734 41.6672 30.4591 42.2018 30.8787 42.6213C31.2982 43.0409 31.8328 43.3266 32.4147 43.4424C32.9967 43.5581 33.5999 43.4987 34.1481 43.2716C34.6962 43.0446 35.1648 42.6601 35.4944 42.1667C35.8241 41.6734 36 41.0933 36 40.5C35.9992 39.7046 35.6829 38.942 35.1204 38.3796C34.558 37.8171 33.7954 37.5008 33 37.5Z" fill="#4F4F4F"/>
<path d="M40.5 30C39.3133 30 38.1533 29.6481 37.1666 28.9888C36.1799 28.3295 35.4109 27.3925 34.9567 26.2961C34.5026 25.1997 34.3838 23.9933 34.6153 22.8295C34.8468 21.6656 35.4182 20.5965 36.2574 19.7574C37.0965 18.9182 38.1656 18.3468 39.3295 18.1153C40.4934 17.8838 41.6997 18.0026 42.7961 18.4567C43.8925 18.9109 44.8295 19.6799 45.4888 20.6666C46.1481 21.6533 46.5 22.8133 46.5 24C46.498 25.5907 45.8652 27.1157 44.7405 28.2404C43.6157 29.3652 42.0907 29.998 40.5 30ZM40.5 21C39.9067 21 39.3266 21.1759 38.8333 21.5056C38.3399 21.8352 37.9554 22.3038 37.7284 22.852C37.5013 23.4001 37.4419 24.0033 37.5576 24.5853C37.6734 25.1672 37.9591 25.7018 38.3787 26.1213C38.7982 26.5409 39.3328 26.8266 39.9147 26.9424C40.4967 27.0581 41.0999 26.9987 41.6481 26.7716C42.1962 26.5446 42.6648 26.1601 42.9944 25.6667C43.3241 25.1734 43.5 24.5933 43.5 24C43.4992 23.2046 43.1829 22.442 42.6205 21.8796C42.058 21.3171 41.2954 21.0008 40.5 21Z" fill="#4F4F4F"/>
<path d="M33 13.5C31.8133 13.5 30.6533 13.1481 29.6666 12.4888C28.6799 11.8295 27.9109 10.8925 27.4567 9.7961C27.0026 8.69975 26.8838 7.49335 27.1153 6.32946C27.3468 5.16558 27.9182 4.09648 28.7574 3.25736C29.5965 2.41825 30.6656 1.8468 31.8295 1.61529C32.9933 1.38378 34.1997 1.5026 35.2961 1.95673C36.3925 2.41085 37.3295 3.17989 37.9888 4.16658C38.6481 5.15328 39 6.31331 39 7.5C38.998 9.09069 38.3652 10.6157 37.2404 11.7405C36.1157 12.8652 34.5907 13.498 33 13.5ZM33 4.5C32.4067 4.5 31.8266 4.67595 31.3333 5.00559C30.8399 5.33524 30.4554 5.80377 30.2284 6.35195C30.0013 6.90013 29.9419 7.50333 30.0576 8.08527C30.1734 8.66722 30.4591 9.20177 30.8787 9.62132C31.2982 10.0409 31.8328 10.3266 32.4147 10.4424C32.9967 10.5581 33.5999 10.4987 34.1481 10.2716C34.6962 10.0446 35.1648 9.66006 35.4944 9.16671C35.8241 8.67337 36 8.09335 36 7.5C35.9992 6.7046 35.6829 5.942 35.1204 5.37956C34.558 4.81712 33.7954 4.5008 33 4.5Z" fill="#4F4F4F"/>
<path d="M15 13.5C13.8133 13.5 12.6533 13.1481 11.6666 12.4888C10.6799 11.8295 9.91085 10.8925 9.45673 9.7961C9.0026 8.69975 8.88378 7.49335 9.11529 6.32946C9.3468 5.16558 9.91825 4.09648 10.7574 3.25736C11.5965 2.41825 12.6656 1.8468 13.8295 1.61529C14.9933 1.38378 16.1997 1.5026 17.2961 1.95673C18.3925 2.41085 19.3295 3.17989 19.9888 4.16658C20.6481 5.15328 21 6.31331 21 7.5C20.998 9.09069 20.3652 10.6157 19.2405 11.7405C18.1157 12.8652 16.5907 13.498 15 13.5ZM15 4.5C14.4067 4.5 13.8266 4.67595 13.3333 5.00559C12.8399 5.33524 12.4554 5.80377 12.2284 6.35195C12.0013 6.90013 11.9419 7.50333 12.0576 8.08527C12.1734 8.66722 12.4591 9.20177 12.8787 9.62132C13.2982 10.0409 13.8328 10.3266 14.4147 10.4424C14.9967 10.5581 15.5999 10.4987 16.1481 10.2716C16.6962 10.0446 17.1648 9.66006 17.4944 9.16671C17.8241 8.67337 18 8.09335 18 7.5C17.9992 6.7046 17.6829 5.942 17.1204 5.37956C16.558 4.81712 15.7954 4.5008 15 4.5Z" fill="#4F4F4F"/>
</svg>
