<svg width="48" height="48" viewBox="0 0 48 48" fill="none" xmlns="http://www.w3.org/2000/svg">
<path d="M39 30H30V27H39V30Z" fill="#4F4F4F"/>
<path d="M45 42H36V39H45V42Z" fill="#4F4F4F"/>
<path d="M42 36H33V33H42V36Z" fill="#4F4F4F"/>
<path d="M25.5044 30C25.4938 28.7343 25.1563 27.4929 24.5245 26.3961C23.8926 25.2994 22.988 24.3846 21.8984 23.7405L32.9999 4.5L30.4049 3L19.0394 22.689C17.6446 22.3774 16.1938 22.4205 14.82 22.8143C13.4461 23.2082 12.1928 23.9402 11.1749 24.9435C5.55892 30.36 5.99392 43.023 6.01492 43.56C6.03043 43.9473 6.19528 44.3136 6.47492 44.5821C6.75456 44.8505 7.12728 45.0003 7.51492 45H30.0014C30.3162 45 30.6231 44.9009 30.8785 44.7169C31.1339 44.5328 31.3249 44.273 31.4244 43.9743C31.524 43.6757 31.5271 43.3533 31.4332 43.0527C31.3393 42.7522 31.1533 42.4889 30.9014 42.3C25.5914 38.316 25.5044 30.081 25.5044 30ZM17.8949 25.4955C19.0955 25.5087 20.2447 25.9843 21.1036 26.8233C21.9624 27.6623 22.4647 28.8001 22.5059 30C22.5059 30.057 22.5089 30.312 22.5314 30.7035L13.6814 26.7675C14.2644 26.2868 14.9371 25.9268 15.6604 25.7084C16.3838 25.49 17.1433 25.4177 17.8949 25.4955ZM23.1749 42C21.976 40.7792 21.2117 39.198 20.9999 37.5H17.9999C18.1073 39.0964 18.606 40.6419 19.4519 42H16.1174C15.5005 40.0533 15.1252 38.0382 14.9999 36H11.9999C12.0967 38.0321 12.4314 40.0459 12.9974 42H8.99992C9.04642 39.246 9.43492 33.162 11.7044 29.1705L23.0039 34.1955C23.5468 37.0145 24.7043 39.6791 26.3939 42H23.1749Z" fill="#4F4F4F"/>
</svg>
