<svg width="96" height="96" viewBox="0 0 96 96" fill="none" xmlns="http://www.w3.org/2000/svg">
<rect width="96" height="96" rx="48" fill="#1E5496"/>
<path d="M26.9173 30.256C27.3466 28.4731 28.3633 26.8866 29.8039 25.7518C31.2444 24.617 33.0249 23.9999 34.8587 24H61.1467C64.92 24 68.2027 26.5867 69.088 30.256L74.4 52.3173C74.7352 53.7094 74.7502 55.1593 74.444 56.558C74.1378 57.9567 73.5183 59.2677 72.6321 60.3923C71.7459 61.5169 70.6162 62.4259 69.328 63.0508C68.0397 63.6757 66.6265 64.0003 65.1947 64H44V60H65.192C66.0188 60 66.8348 59.8125 67.5786 59.4515C68.3224 59.0906 68.9747 58.5656 69.4863 57.9162C69.9979 57.2667 70.3555 56.5096 70.5323 55.702C70.709 54.8943 70.7003 54.0571 70.5067 53.2533L65.2 31.192C64.9809 30.2821 64.4619 29.4725 63.7266 28.8935C62.9913 28.3144 62.0826 27.9997 61.1467 28H34.8613C32.936 28 31.2613 29.32 30.808 31.192L29.0107 38.6667H26C25.616 38.6667 25.24 38.696 24.872 38.752L26.9173 30.256ZM43.9733 70.6667H62.0053C62.5358 70.6667 63.0445 70.456 63.4195 70.0809C63.7946 69.7058 64.0053 69.1971 64.0053 68.6667C64.0053 68.1362 63.7946 67.6275 63.4195 67.2525C63.0445 66.8774 62.5358 66.6667 62.0053 66.6667H44.0053V70C44.0053 70.224 43.992 70.448 43.9733 70.6667ZM31.3333 54.6667C32.2174 54.6667 33.0652 54.3155 33.6904 53.6904C34.3155 53.0652 34.6667 52.2174 34.6667 51.3333C34.6667 50.4493 34.3155 49.6014 33.6904 48.9763C33.0652 48.3512 32.2174 48 31.3333 48C30.4493 48 29.6014 48.3512 28.9763 48.9763C28.3512 49.6014 28 50.4493 28 51.3333C28 52.2174 28.3512 53.0652 28.9763 53.6904C29.6014 54.3155 30.4493 54.6667 31.3333 54.6667ZM21.3333 46C21.3333 43.424 23.424 41.3333 26 41.3333H36.6667C39.248 41.3333 41.336 43.424 41.336 46V70C41.336 71.2377 40.8443 72.4247 39.9692 73.2998C39.094 74.175 37.907 74.6667 36.6693 74.6667H26.0027C25.3896 74.667 24.7825 74.5466 24.216 74.3122C23.6495 74.0778 23.1347 73.7342 22.7011 73.3008C22.2675 72.8674 21.9235 72.3528 21.6888 71.7865C21.4541 71.2201 21.3333 70.6131 21.3333 70V46ZM26 45.3333C25.8232 45.3333 25.6536 45.4036 25.5286 45.5286C25.4036 45.6536 25.3333 45.8232 25.3333 46V70C25.3333 70.368 25.632 70.6667 26 70.6667H36.6667C36.8435 70.6667 37.0131 70.5964 37.1381 70.4714C37.2631 70.3464 37.3333 70.1768 37.3333 70V46C37.3333 45.8232 37.2631 45.6536 37.1381 45.5286C37.0131 45.4036 36.8435 45.3333 36.6667 45.3333H26Z" fill="white"/>
</svg>
