<svg width="49" height="48" viewBox="0 0 49 48" fill="none" xmlns="http://www.w3.org/2000/svg">
<path d="M23 16.5H26V30H23V16.5Z" fill="#4F4F4F"/>
<path d="M20 3H29V6H20V3Z" fill="#4F4F4F"/>
<path d="M42.5 13.5L40.37 11.385L36.995 14.76C34.2323 11.5695 30.3466 9.56614 26.1452 9.16605C21.9438 8.76596 17.7499 9.99994 14.4346 12.6116C11.1194 15.2233 8.93787 19.0118 8.34324 23.1901C7.74862 27.3683 8.78664 31.6151 11.2416 35.0479C13.6967 38.4808 17.3799 40.8358 21.526 41.6237C25.6722 42.4115 29.9625 41.5717 33.5056 39.2786C37.0487 36.9856 39.5721 33.4156 40.5515 29.3105C41.531 25.2053 40.8911 20.8807 38.765 17.235L42.5 13.5ZM24.5 39C21.8299 39 19.2198 38.2082 16.9998 36.7248C14.7797 35.2414 13.0494 33.133 12.0276 30.6662C11.0058 28.1994 10.7385 25.485 11.2594 22.8663C11.7803 20.2475 13.066 17.8421 14.954 15.954C16.842 14.066 19.2475 12.7803 21.8662 12.2594C24.485 11.7385 27.1994 12.0058 29.6662 13.0276C32.133 14.0494 34.2414 15.7797 35.7248 17.9998C37.2082 20.2199 38 22.8299 38 25.5C38 29.0804 36.5776 32.5142 34.0459 35.0459C31.5142 37.5777 28.0804 39 24.5 39Z" fill="#4F4F4F"/>
</svg>
