<svg width="24" height="24" viewBox="0 0 24 24" fill="none" xmlns="http://www.w3.org/2000/svg">
<path d="M12 2C13.0609 2 14.0783 2.42143 14.8284 3.17157C15.5786 3.92172 16 4.93913 16 6V8H17.75C18.0455 8 18.3381 8.0582 18.611 8.17127C18.884 8.28434 19.1321 8.45008 19.341 8.65901C19.5499 8.86794 19.7157 9.11598 19.8287 9.38896C19.9418 9.66195 20 9.95453 20 10.25V19.75C20 20.0455 19.9418 20.3381 19.8287 20.611C19.7157 20.884 19.5499 21.1321 19.341 21.341C19.1321 21.5499 18.884 21.7157 18.611 21.8287C18.3381 21.9418 18.0455 22 17.75 22H6.25C5.65326 22 5.08097 21.7629 4.65901 21.341C4.23705 20.919 4 20.3467 4 19.75V10.25C4 9.65326 4.23705 9.08097 4.65901 8.65901C5.08097 8.23705 5.65326 8 6.25 8H8V6C8 4.93913 8.42143 3.92172 9.17157 3.17157C9.92172 2.42143 10.9391 2 12 2ZM17.75 9.5H6.25C6.05109 9.5 5.86032 9.57902 5.71967 9.71967C5.57902 9.86032 5.5 10.0511 5.5 10.25V19.75C5.5 20.164 5.836 20.5 6.25 20.5H17.75C17.9489 20.5 18.1397 20.421 18.2803 20.2803C18.421 20.1397 18.5 19.9489 18.5 19.75V10.25C18.5 10.0511 18.421 9.86032 18.2803 9.71967C18.1397 9.57902 17.9489 9.5 17.75 9.5ZM12 13.5C12.3978 13.5 12.7794 13.658 13.0607 13.9393C13.342 14.2206 13.5 14.6022 13.5 15C13.5 15.3978 13.342 15.7794 13.0607 16.0607C12.7794 16.342 12.3978 16.5 12 16.5C11.6022 16.5 11.2206 16.342 10.9393 16.0607C10.658 15.7794 10.5 15.3978 10.5 15C10.5 14.6022 10.658 14.2206 10.9393 13.9393C11.2206 13.658 11.6022 13.5 12 13.5ZM12 3.5C11.337 3.5 10.7011 3.76339 10.2322 4.23223C9.76339 4.70107 9.5 5.33696 9.5 6V8H14.5V6C14.5 5.33696 14.2366 4.70107 13.7678 4.23223C13.2989 3.76339 12.663 3.5 12 3.5Z" fill="black"/>
</svg>
