<svg width="36" height="36" viewBox="0 0 36 36" fill="none" xmlns="http://www.w3.org/2000/svg">
<path d="M18 3.0015C19.2406 3.0015 20.4507 3.38605 21.4637 4.10221C22.4767 4.81838 23.2428 5.83094 23.6565 7.0005C23.7825 7.36087 23.7663 7.75571 23.6112 8.10457C23.4562 8.45343 23.174 8.73005 22.8221 8.87807C22.4702 9.02609 22.0751 9.03438 21.7174 8.90124C21.3596 8.7681 21.066 8.50355 20.8965 8.1615L20.829 8.001C20.5995 7.35199 20.1538 6.80163 19.5667 6.44227C18.9796 6.08291 18.2867 5.9364 17.6043 6.02732C16.922 6.11824 16.2917 6.44106 15.8191 6.94163C15.3466 7.44219 15.0605 8.09005 15.009 8.7765L15.003 9V11.9985H26.6265C27.4819 11.9984 28.3055 12.3232 28.9306 12.9071C29.5558 13.491 29.9358 14.2905 29.994 15.144L30.0015 15.375V29.619C30.0016 30.4742 29.6771 31.2975 29.0934 31.9226C28.5098 32.5477 27.7107 32.928 26.8575 32.9865L26.6265 32.994H9.375C8.51981 32.9941 7.69647 32.6696 7.07137 32.0859C6.44627 31.5023 6.06603 30.7032 6.0075 29.85L6 29.619V15.375C5.99989 14.5198 6.32444 13.6965 6.90805 13.0714C7.49166 12.4463 8.29082 12.066 9.144 12.0075L9.375 12L12.0015 11.9985V8.9985C12.0023 7.40812 12.6346 5.88315 13.7595 4.75886C14.8843 3.63457 16.4096 3.003 18 3.003V3.0015ZM18 20.2485C17.4037 20.2485 16.8317 20.4854 16.4101 20.9071C15.9884 21.3287 15.7515 21.9007 15.7515 22.497C15.7515 23.0933 15.9884 23.6653 16.4101 24.0869C16.8317 24.5086 17.4037 24.7455 18 24.7455C18.5963 24.7455 19.1683 24.5086 19.5899 24.0869C20.0116 23.6653 20.2485 23.0933 20.2485 22.497C20.2485 21.9007 20.0116 21.3287 19.5899 20.9071C19.1683 20.4854 18.5963 20.2485 18 20.2485V20.2485Z" fill="white"/>
</svg>
