<svg width="36" height="36" viewBox="0 0 36 36" fill="none" xmlns="http://www.w3.org/2000/svg">
<path d="M18 3C19.5913 3 21.1174 3.63214 22.2426 4.75736C23.3679 5.88258 24 7.4087 24 9V12H27.75C28.3467 12 28.919 12.2371 29.341 12.659C29.7629 13.081 30 13.6533 30 14.25V30.75C30 31.3467 29.7629 31.919 29.341 32.341C28.919 32.7629 28.3467 33 27.75 33H8.25C7.65326 33 7.08097 32.7629 6.65901 32.341C6.23705 31.919 6 31.3467 6 30.75V14.25C6 13.6533 6.23705 13.081 6.65901 12.659C7.08097 12.2371 7.65326 12 8.25 12H12V9C12 7.4087 12.6321 5.88258 13.7574 4.75736C14.8826 3.63214 16.4087 3 18 3ZM18 20.25C17.4033 20.25 16.831 20.4871 16.409 20.909C15.9871 21.331 15.75 21.9033 15.75 22.5C15.75 23.0967 15.9871 23.669 16.409 24.091C16.831 24.5129 17.4033 24.75 18 24.75C18.5967 24.75 19.169 24.5129 19.591 24.091C20.0129 23.669 20.25 23.0967 20.25 22.5C20.25 21.9033 20.0129 21.331 19.591 20.909C19.169 20.4871 18.5967 20.25 18 20.25ZM18 6C17.2044 6 16.4413 6.31607 15.8787 6.87868C15.3161 7.44129 15 8.20435 15 9V12H21V9C21 8.20435 20.6839 7.44129 20.1213 6.87868C19.5587 6.31607 18.7956 6 18 6Z" fill="white"/>
</svg>
