<svg width="16" height="16" viewBox="0 0 16 16" fill="none" xmlns="http://www.w3.org/2000/svg">
<path d="M8.67312 2.50956C8.63472 2.47211 8.58919 2.44277 8.53922 2.42327C8.48926 2.40377 8.43588 2.39452 8.38227 2.39607C8.32865 2.39761 8.2759 2.40993 8.22714 2.43228C8.17838 2.45462 8.13462 2.48655 8.09845 2.52615C8.06228 2.56576 8.03444 2.61223 8.0166 2.66281C7.99875 2.71339 7.99126 2.76704 7.99457 2.82058C7.99788 2.87411 8.01192 2.92643 8.03586 2.97443C8.0598 3.02242 8.09314 3.06511 8.13392 3.09996L13.0683 7.60396L2.00352 7.60396C1.89743 7.60396 1.79569 7.64611 1.72067 7.72112C1.64566 7.79614 1.60352 7.89788 1.60352 8.00396C1.60352 8.11005 1.64566 8.21179 1.72067 8.28681C1.79569 8.36182 1.89743 8.40396 2.00352 8.40396H13.0659L8.13392 12.9072C8.05552 12.9787 8.00873 13.0784 8.00386 13.1844C7.99898 13.2904 8.03641 13.394 8.10791 13.4724C8.17942 13.5508 8.27914 13.5975 8.38513 13.6024C8.49113 13.6073 8.59472 13.5699 8.67312 13.4984L14.2059 8.44636C14.2677 8.39034 14.3171 8.322 14.3509 8.24574C14.3847 8.16948 14.4022 8.08698 14.4022 8.00356C14.4022 7.92015 14.3847 7.83765 14.3509 7.76139C14.3171 7.68512 14.2677 7.61678 14.2059 7.56076L8.67312 2.50956Z" fill="white"/>
</svg>
